<svg width="143" height="35" viewBox="0 0 143 35" fill="none" xmlns="http://www.w3.org/2000/svg">
<path d="M14.2842 11.2559L24.06 27.6173H4.50841L14.2842 11.2559Z" fill="#F4F2EB"/>
<path d="M30.5186 19.625L22.5002 6.40269L38.5369 6.40269L30.5186 19.625Z" fill="#F4F2EB"/>
<path d="M127.143 17.988C127.143 16.4748 127.484 15.1427 128.166 13.9919C128.869 12.841 129.817 11.9458 131.011 11.3065C132.204 10.6458 133.558 10.3154 135.071 10.3154C136.584 10.3154 137.927 10.6458 139.099 11.3065C140.292 11.9458 141.241 12.841 141.944 13.9919C142.648 15.1427 142.999 16.4748 142.999 17.988C142.999 19.4799 142.648 20.8119 141.944 21.9841C141.241 23.135 140.292 24.0408 139.099 24.7015C137.927 25.3408 136.584 25.6605 135.071 25.6605C133.558 25.6605 132.204 25.3408 131.011 24.7015C129.817 24.0408 128.869 23.135 128.166 21.9841C127.484 20.8119 127.143 19.4799 127.143 17.988ZM130.691 17.988C130.691 18.9044 130.883 19.7143 131.267 20.4176C131.65 21.0996 132.172 21.6431 132.833 22.048C133.494 22.4317 134.24 22.6235 135.071 22.6235C135.881 22.6235 136.616 22.4317 137.277 22.048C137.959 21.6431 138.492 21.0996 138.875 20.4176C139.259 19.7143 139.451 18.9044 139.451 17.988C139.451 17.0715 139.259 16.2617 138.875 15.5583C138.492 14.855 137.959 14.3115 137.277 13.9279C136.616 13.5443 135.881 13.3525 135.071 13.3525C134.24 13.3525 133.494 13.5443 132.833 13.9279C132.172 14.3115 131.65 14.855 131.267 15.5583C130.883 16.2617 130.691 17.0715 130.691 17.988Z" fill="#F4F2EB"/>
<path d="M111.316 10.6367H115.089L118.925 20.1315L122.761 10.6367H126.566L118.925 26.6851L111.316 10.6367Z" fill="#F4F2EB"/>
<path d="M94.8926 17.988C94.8926 16.4748 95.2336 15.1427 95.9156 13.9919C96.6189 12.841 97.5673 11.9458 98.7608 11.3065C99.9543 10.6458 101.308 10.3154 102.821 10.3154C104.334 10.3154 105.677 10.6458 106.849 11.3065C108.042 11.9458 108.991 12.841 109.694 13.9919C110.398 15.1427 110.749 16.4748 110.749 17.988C110.749 19.4799 110.398 20.8119 109.694 21.9841C108.991 23.135 108.042 24.0408 106.849 24.7015C105.677 25.3408 104.334 25.6605 102.821 25.6605C101.308 25.6605 99.9543 25.3408 98.7608 24.7015C97.5673 24.0408 96.6189 23.135 95.9156 21.9841C95.2336 20.8119 94.8926 19.4799 94.8926 17.988ZM98.4411 17.988C98.4411 18.9044 98.6329 19.7143 99.0166 20.4176C99.4002 21.0996 99.9224 21.6431 100.583 22.048C101.244 22.4317 101.99 22.6235 102.821 22.6235C103.631 22.6235 104.366 22.4317 105.027 22.048C105.709 21.6431 106.242 21.0996 106.625 20.4176C107.009 19.7143 107.201 18.9044 107.201 17.988C107.201 17.0715 107.009 16.2617 106.625 15.5583C106.242 14.855 105.709 14.3115 105.027 13.9279C104.366 13.5443 103.631 13.3525 102.821 13.3525C101.99 13.3525 101.244 13.5443 100.583 13.9279C99.9224 14.3115 99.4002 14.855 99.0166 15.5583C98.6329 16.2617 98.4411 17.0715 98.4411 17.988Z" fill="#F4F2EB"/>
<path d="M88.0527 16.3895C88.0527 15.3026 87.8289 14.482 87.3813 13.9279C86.9337 13.3738 86.2411 13.0967 85.3033 13.0967C84.6639 13.0967 84.0992 13.2353 83.609 13.5123C83.1188 13.7681 82.7352 14.1517 82.4581 14.6632C82.181 15.1534 82.0425 15.7288 82.0425 16.3895V25.3408H78.5898V10.6351H82.0425V12.9049C82.5114 12.0311 83.1081 11.3811 83.8328 10.9548C84.5787 10.5286 85.4632 10.3154 86.4862 10.3154C88.1486 10.3154 89.4167 10.8269 90.2905 11.8499C91.1643 12.8516 91.6012 14.237 91.6012 16.0059V25.3408H88.0527V16.3895Z" fill="#F4F2EB"/>
<path d="M65.6996 20.5135C66.1685 21.025 66.6373 21.4726 67.1062 21.8562C67.5964 22.2185 68.0866 22.4956 68.5768 22.6874C69.067 22.8579 69.5572 22.9432 70.0474 22.9432C70.6654 22.9432 71.145 22.8046 71.486 22.5276C71.8483 22.2505 72.0294 21.8669 72.0294 21.3767C72.0294 20.9504 71.8909 20.5881 71.6138 20.2897C71.3368 19.9701 70.9532 19.7036 70.463 19.4905C69.9728 19.2561 69.3973 19.0216 68.7366 18.7872C68.0759 18.5315 67.4153 18.2331 66.7546 17.8921C66.1152 17.5298 65.5824 17.0609 65.1561 16.4854C64.7512 15.91 64.5487 15.1854 64.5487 14.3115C64.5487 13.4164 64.7725 12.6705 65.2201 12.0737C65.6889 11.477 66.307 11.0401 67.0743 10.763C67.8628 10.4646 68.7047 10.3154 69.5998 10.3154C70.4097 10.3154 71.1663 10.4326 71.8696 10.6671C72.5942 10.9015 73.2443 11.2106 73.8197 11.5942C74.3951 11.9778 74.8853 12.4147 75.2903 12.9049L73.3721 14.9509C72.8819 14.3755 72.2959 13.9066 71.6138 13.5443C70.9318 13.182 70.2285 13.0008 69.5039 13.0008C69.0137 13.0008 68.6088 13.1074 68.2891 13.3205C67.9694 13.5336 67.8095 13.8427 67.8095 14.2476C67.8095 14.5886 67.9481 14.8976 68.2251 15.1747C68.5235 15.4305 68.9071 15.6649 69.376 15.878C69.8662 16.0912 70.4097 16.3149 71.0064 16.5494C71.8163 16.8691 72.5623 17.2207 73.2443 17.6044C73.9263 17.988 74.4697 18.4569 74.8747 19.011C75.3009 19.5651 75.5141 20.2897 75.5141 21.1849C75.5141 22.5702 75.0345 23.6891 74.0755 24.5416C73.1377 25.3728 71.8589 25.7884 70.2392 25.7884C69.2375 25.7884 68.3104 25.6392 67.4579 25.3408C66.6267 25.0211 65.8914 24.6162 65.252 24.126C64.634 23.6145 64.1118 23.0817 63.6855 22.5276L65.6996 20.5135Z" fill="#F4F2EB"/>
<path d="M45.9023 17.988C45.9023 16.4748 46.2433 15.1427 46.9254 13.9919C47.6287 12.841 48.5771 11.9458 49.7706 11.3065C50.9641 10.6458 52.3174 10.3154 53.8306 10.3154C55.3438 10.3154 56.6865 10.6458 57.8587 11.3065C59.0522 11.9458 60.0007 12.841 60.704 13.9919C61.4073 15.1427 61.7589 16.4748 61.7589 17.988C61.7589 19.4799 61.4073 20.8119 60.704 21.9841C60.0007 23.135 59.0522 24.0408 57.8587 24.7015C56.6865 25.3408 55.3438 25.6605 53.8306 25.6605C52.3174 25.6605 50.9641 25.3408 49.7706 24.7015C48.5771 24.0408 47.6287 23.135 46.9254 21.9841C46.2433 20.8119 45.9023 19.4799 45.9023 17.988ZM49.4509 17.988C49.4509 18.9044 49.6427 19.7143 50.0263 20.4176C50.41 21.0996 50.9321 21.6431 51.5928 22.048C52.2535 22.4317 52.9995 22.6235 53.8306 22.6235C54.6405 22.6235 55.3758 22.4317 56.0365 22.048C56.7185 21.6431 57.2513 21.0996 57.6349 20.4176C58.0186 19.7143 58.2104 18.9044 58.2104 17.988C58.2104 17.0715 58.0186 16.2617 57.6349 15.5583C57.2513 14.855 56.7185 14.3115 56.0365 13.9279C55.3758 13.5443 54.6405 13.3525 53.8306 13.3525C52.9995 13.3525 52.2535 13.5443 51.5928 13.9279C50.9321 14.3115 50.41 14.855 50.0263 15.5583C49.6427 16.2617 49.4509 17.0715 49.4509 17.988Z" fill="#F4F2EB"/>
</svg>
